<svg width="25" height="25" viewBox="0 0 25 25" fill="none" xmlns="http://www.w3.org/2000/svg">
<circle cx="12.5" cy="12.5" r="12" fill="white" stroke="#031A34"/>
<path d="M12.5 16.4722C13.4375 16.4722 14.2345 16.1564 14.891 15.5247C15.547 14.8925 15.875 14.125 15.875 13.2222C15.875 12.3194 15.547 11.552 14.891 10.9198C14.2345 10.2881 13.4375 9.97222 12.5 9.97222C11.5625 9.97222 10.7655 10.2881 10.109 10.9198C9.453 11.552 9.125 12.3194 9.125 13.2222C9.125 14.125 9.453 14.8925 10.109 15.5247C10.7655 16.1564 11.5625 16.4722 12.5 16.4722ZM12.5 15.0278C11.975 15.0278 11.5313 14.8532 11.1688 14.5042C10.8063 14.1551 10.625 13.7278 10.625 13.2222C10.625 12.7167 10.8063 12.2894 11.1688 11.9403C11.5313 11.5912 11.975 11.4167 12.5 11.4167C13.025 11.4167 13.4688 11.5912 13.8312 11.9403C14.1937 12.2894 14.375 12.7167 14.375 13.2222C14.375 13.7278 14.1937 14.1551 13.8312 14.5042C13.4688 14.8532 13.025 15.0278 12.5 15.0278ZM6.5 19C6.0875 19 5.7345 18.8587 5.441 18.5761C5.147 18.2929 5 17.9528 5 17.5556V8.88889C5 8.49167 5.147 8.15174 5.441 7.86911C5.7345 7.586 6.0875 7.44444 6.5 7.44444H8.8625L10.25 6H14.75L16.1375 7.44444H18.5C18.9125 7.44444 19.2657 7.586 19.5597 7.86911C19.8533 8.15174 20 8.49167 20 8.88889V17.5556C20 17.9528 19.8533 18.2929 19.5597 18.5761C19.2657 18.8587 18.9125 19 18.5 19H6.5ZM18.5 17.5556V8.88889H15.4625L14.0938 7.44444H10.9062L9.5375 8.88889H6.5V17.5556H18.5Z" fill="#031A34"/>
</svg>
